<?xml version="1.0" encoding="UTF-8"?>
<!DOCTYPE svg PUBLIC "-//W3C//DTD SVG 1.1//EN" "http://www.w3.org/Graphics/SVG/1.1/DTD/svg11.dtd">
<svg xmlns="http://www.w3.org/2000/svg" version="1.1" width="1080px" height="1080px" style="shape-rendering:geometricPrecision; text-rendering:geometricPrecision; image-rendering:optimizeQuality; fill-rule:evenodd; clip-rule:evenodd" xmlns:xlink="http://www.w3.org/1999/xlink">
<g><path style="opacity:1" fill="#ecedec" d="M -0.5,-0.5 C 359.5,-0.5 719.5,-0.5 1079.5,-0.5C 1079.5,359.5 1079.5,719.5 1079.5,1079.5C 719.5,1079.5 359.5,1079.5 -0.5,1079.5C -0.5,719.5 -0.5,359.5 -0.5,-0.5 Z"/></g>
<g><path style="opacity:1" fill="#04d172" d="M 897.5,223.5 C 897.279,224.735 896.612,225.735 895.5,226.5C 895.833,226.833 896.167,227.167 896.5,227.5C 900.128,225.991 903.128,226.824 905.5,230C 905.355,230.772 905.022,231.439 904.5,232C 906.179,232.395 907.845,232.228 909.5,231.5C 913.134,232.877 916.467,234.544 919.5,236.5C 919.281,237.675 919.614,238.675 920.5,239.5C 922.416,238.752 924.416,238.752 926.5,239.5C 932.668,242.08 938.335,245.414 943.5,249.5C 944.174,251.024 945.174,252.358 946.5,253.5C 951.846,257.063 957.512,260.063 963.5,262.5C 963.833,262.5 964.167,262.5 964.5,262.5C 965.107,266.951 965.441,271.451 965.5,276C 964.74,295.833 964.073,315.666 963.5,335.5C 963.5,340.833 963.5,346.167 963.5,351.5C 962.043,360.681 960.71,370.015 959.5,379.5C 957.11,402.504 953.443,425.171 948.5,447.5C 946.905,449.111 945.739,451.111 945,453.5C 944.499,458.508 943.999,463.508 943.5,468.5C 941.285,481.026 938.285,493.359 934.5,505.5C 933.577,506.303 932.577,506.47 931.5,506C 926.689,501.52 922.189,496.687 918,491.5C 918.595,489.65 919.095,487.65 919.5,485.5C 916.514,486.355 913.514,486.855 910.5,487C 908.47,485.104 906.803,482.937 905.5,480.5C 906.167,479.833 906.833,479.167 907.5,478.5C 905.535,477.708 903.535,477.041 901.5,476.5C 899.287,474.226 896.621,472.726 893.5,472C 892.102,469.134 889.768,467.634 886.5,467.5C 880.791,463.643 875.458,459.31 870.5,454.5C 868.957,449.676 868.291,444.676 868.5,439.5C 870.047,429.67 870.714,419.67 870.5,409.5C 870.5,408.833 870.5,408.167 870.5,407.5C 871.268,406.737 871.768,405.737 872,404.5C 872.499,400.179 872.666,395.846 872.5,391.5C 872.995,383.34 873.662,375.34 874.5,367.5C 875.235,356.976 875.901,346.309 876.5,335.5C 878.485,319.868 879.151,303.868 878.5,287.5C 876.143,287.337 873.81,287.503 871.5,288C 869.72,289.853 868.053,291.687 866.5,293.5C 865.5,293.5 864.5,293.5 863.5,293.5C 863.703,295.39 863.037,296.89 861.5,298C 858.444,299.856 855.444,301.689 852.5,303.5C 850.833,303.5 849.167,303.5 847.5,303.5C 847.5,304.5 847.5,305.5 847.5,306.5C 846.167,306.5 844.833,306.5 843.5,306.5C 843.5,307.5 843.5,308.5 843.5,309.5C 842.421,311.543 840.754,312.876 838.5,313.5C 835.751,314.974 833.418,316.974 831.5,319.5C 826.138,323.177 820.804,326.843 815.5,330.5C 812.028,330.126 809.028,331.126 806.5,333.5C 804.065,331.721 803.065,332.387 803.5,335.5C 806.896,335.633 807.229,336.633 804.5,338.5C 800.085,339.272 795.752,339.605 791.5,339.5C 792.025,340.192 792.692,340.692 793.5,341C 793.868,343.033 793.868,345.2 793.5,347.5C 791.568,348.52 789.568,348.687 787.5,348C 788.711,347.107 788.711,346.274 787.5,345.5C 784.663,346.509 783.33,348.509 783.5,351.5C 784.5,351.5 785.5,351.5 786.5,351.5C 786.675,354.329 785.342,355.996 782.5,356.5C 782.863,357.183 783.196,357.85 783.5,358.5C 780.482,358.665 777.482,358.498 774.5,358C 768.459,355.311 762.459,352.644 756.5,350C 757.5,349.667 758.5,349.333 759.5,349C 756.683,347.664 754.017,346.164 751.5,344.5C 749.36,345.254 747.194,345.921 745,346.5C 741.859,345.678 738.693,345.011 735.5,344.5C 731.974,342.928 728.307,341.428 724.5,340C 726.597,338.39 728.93,337.223 731.5,336.5C 727.71,335.368 724.21,336.035 721,338.5C 719.189,337.576 719.355,336.743 721.5,336C 721,335.833 720.5,335.667 720,335.5C 715.178,336.651 710.345,336.651 705.5,335.5C 699.229,334.435 693.229,332.768 687.5,330.5C 685.257,329.916 683.257,328.75 681.5,327C 678.183,326.502 674.85,326.335 671.5,326.5C 671.719,325.325 671.386,324.325 670.5,323.5C 667.897,324.562 665.23,324.728 662.5,324C 665.375,323.105 665.708,322.272 663.5,321.5C 658.544,322.394 653.544,322.727 648.5,322.5C 644.138,320.656 639.471,319.656 634.5,319.5C 625.362,318.65 616.362,317.65 607.5,316.5C 599.908,314.508 591.908,313.508 583.5,313.5C 564.832,313.213 546.166,312.879 527.5,312.5C 510.453,312.819 493.453,312.486 476.5,311.5C 470.491,315.345 463.824,317.178 456.5,317C 454.148,317.24 452.148,318.073 450.5,319.5C 448.833,319.5 447.167,319.5 445.5,319.5C 438.998,320.667 432.498,320.667 426,319.5C 421.553,319.801 421.719,320.301 426.5,321C 425.4,322.023 424.067,322.523 422.5,322.5C 420.182,322.003 417.848,321.67 415.5,321.5C 415.5,322.833 415.5,324.167 415.5,325.5C 401.436,328.634 387.436,331.967 373.5,335.5C 370.918,335.025 368.918,335.692 367.5,337.5C 366.833,337.5 366.167,337.5 365.5,337.5C 360.479,337.918 355.646,338.918 351,340.5C 348.491,339.907 345.991,339.741 343.5,340C 344.5,340.833 345.5,341.667 346.5,342.5C 344.067,344.054 341.4,344.72 338.5,344.5C 337.053,340.883 338.387,338.55 342.5,337.5C 340.276,336.22 338.276,336.553 336.5,338.5C 335.52,341.086 335.187,343.753 335.5,346.5C 333.266,346.62 331.099,346.287 329,345.5C 326.976,345.8 326.476,346.633 327.5,348C 324.901,348.769 322.401,348.602 320,347.5C 319.833,347.833 319.667,348.167 319.5,348.5C 320.5,349.167 321.5,349.833 322.5,350.5C 319.732,351.398 317.399,352.731 315.5,354.5C 310.244,357.622 304.577,359.955 298.5,361.5C 293.192,361.376 288.859,359.209 285.5,355C 283.114,353.807 280.78,352.64 278.5,351.5C 275.99,351.009 273.656,350.009 271.5,348.5C 259.606,339.653 247.606,330.986 235.5,322.5C 235.631,321.761 235.464,321.094 235,320.5C 232.197,318.78 229.697,316.614 227.5,314C 226.207,313.51 224.873,313.343 223.5,313.5C 223.271,311.567 222.438,309.9 221,308.5C 220.667,308.833 220.333,309.167 220,309.5C 217.313,308.287 214.48,307.62 211.5,307.5C 208.821,307.475 207.488,306.142 207.5,303.5C 206.5,303.5 205.5,303.5 204.5,303.5C 202.954,301.118 202.287,298.451 202.5,295.5C 199.014,296.953 195.347,297.619 191.5,297.5C 192.244,314.483 192.744,331.483 193,348.5C 193.232,349.737 193.732,350.737 194.5,351.5C 194.501,365.516 195.001,379.516 196,393.5C 196.002,396.051 196.836,398.051 198.5,399.5C 197.887,405.271 198.554,410.604 200.5,415.5C 201.477,418.287 201.81,421.287 201.5,424.5C 202.201,433.819 202.868,443.153 203.5,452.5C 203.617,455.44 202.95,458.107 201.5,460.5C 200.078,461.925 198.411,462.925 196.5,463.5C 193.931,463.738 192.265,465.071 191.5,467.5C 189.068,468.75 186.734,470.25 184.5,472C 183.207,472.49 181.873,472.657 180.5,472.5C 180.5,473.833 180.5,475.167 180.5,476.5C 178.888,478.333 177.222,480 175.5,481.5C 174.022,481.238 172.689,481.571 171.5,482.5C 170.155,485.744 167.988,486.744 165,485.5C 164.506,487.134 164.34,488.801 164.5,490.5C 161.833,493.833 158.833,496.833 155.5,499.5C 153.533,499.739 151.699,499.406 150,498.5C 148.89,500.037 147.39,500.703 145.5,500.5C 145.421,499.07 145.754,497.736 146.5,496.5C 145.311,495.571 143.978,495.238 142.5,495.5C 143.112,491.837 143.279,488.17 143,484.5C 142.781,485.938 142.281,487.271 141.5,488.5C 140.262,485.832 140.262,483.166 141.5,480.5C 140.675,479.614 139.675,479.281 138.5,479.5C 138.655,476.284 137.655,473.617 135.5,471.5C 132.707,460.201 130.04,448.868 127.5,437.5C 127.795,435.265 127.461,433.265 126.5,431.5C 126.106,423.13 125.272,414.797 124,406.5C 123.617,405.944 123.117,405.611 122.5,405.5C 121.833,403.5 121.167,401.5 120.5,399.5C 119.697,389.805 118.697,380.139 117.5,370.5C 117.037,361.169 116.537,351.836 116,342.5C 114.958,334.771 113.792,327.104 112.5,319.5C 111.194,301.341 110.694,283.008 111,264.5C 142.544,244.478 175.044,226.144 208.5,209.5C 210.419,210.612 212.086,211.946 213.5,213.5C 213.937,215.074 214.937,216.241 216.5,217C 215.167,218 215.167,219 216.5,220C 221.947,221.474 226.78,223.974 231,227.5C 231.667,228.5 231.667,229.5 231,230.5C 230.282,229.549 229.449,229.383 228.5,230C 230.167,232.333 232.167,234.333 234.5,236C 233.167,237 231.833,238 230.5,239C 234.357,239.168 237.857,238.001 241,235.5C 242.567,236.856 244.4,237.523 246.5,237.5C 247.5,237.833 248.167,238.5 248.5,239.5C 248.738,242.63 250.572,244.963 254,246.5C 254.333,246.167 254.667,245.833 255,245.5C 257.802,248.146 260.968,250.146 264.5,251.5C 278.137,261.478 291.137,272.145 303.5,283.5C 303.203,286.724 303.87,289.724 305.5,292.5C 308.441,293.773 310.774,295.773 312.5,298.5C 313.216,297.689 314.05,297.022 315,296.5C 319.987,299.095 324.987,299.095 330,296.5C 332.478,297.332 334.978,297.499 337.5,297C 336.692,296.692 336.025,296.192 335.5,295.5C 338.703,295.018 341.369,293.685 343.5,291.5C 345.932,290.042 348.599,288.875 351.5,288C 362.106,285.186 372.773,282.686 383.5,280.5C 388.261,280.876 392.595,279.876 396.5,277.5C 396.833,277.5 397.167,277.5 397.5,277.5C 405.136,276.175 412.802,275.008 420.5,274C 422.119,273.764 423.119,272.931 423.5,271.5C 426.167,271.5 428.833,271.5 431.5,271.5C 437.049,270.989 442.383,269.989 447.5,268.5C 452.616,267.194 457.949,266.527 463.5,266.5C 475.683,266.165 487.85,265.498 500,264.5C 504.765,264.652 509.431,265.319 514,266.5C 515.627,266.375 517.127,265.875 518.5,265C 518.167,264.667 517.833,264.333 517.5,264C 531.468,262.709 545.468,262.209 559.5,262.5C 571.303,263.958 583.303,264.624 595.5,264.5C 604.859,264.837 614.192,265.503 623.5,266.5C 631.653,268.136 639.986,269.469 648.5,270.5C 650.764,271.219 653.097,271.552 655.5,271.5C 655.5,272.5 655.5,273.5 655.5,274.5C 660.232,274.378 664.898,274.878 669.5,276C 670.973,276.71 671.64,277.876 671.5,279.5C 676.036,279.872 680.37,280.872 684.5,282.5C 686.369,281.932 688.203,281.266 690,280.5C 694.441,281.622 698.941,282.289 703.5,282.5C 707.5,283.167 711.5,283.833 715.5,284.5C 717.663,285.744 719.997,286.744 722.5,287.5C 722.561,289.592 723.561,291.092 725.5,292C 730.167,292.333 734.833,292.667 739.5,293C 748.75,299.189 755.75,297.355 760.5,287.5C 766.14,282.527 771.473,277.194 776.5,271.5C 780.436,269.234 783.769,266.234 786.5,262.5C 795.77,254.91 805.104,247.243 814.5,239.5C 815.386,238.675 815.719,237.675 815.5,236.5C 818.385,235.618 821.052,234.284 823.5,232.5C 827.78,230.214 831.78,227.547 835.5,224.5C 836.689,223.571 838.022,223.238 839.5,223.5C 839.726,226.249 839.393,228.916 838.5,231.5C 835.587,232.542 832.921,233.875 830.5,235.5C 832.195,235.841 834.195,236.508 836.5,237.5C 842.783,235.327 845.283,230.994 844,224.5C 838.904,223.132 838.404,220.965 842.5,218C 845.735,216.767 848.735,215.101 851.5,213C 852.758,211.259 853.758,209.426 854.5,207.5C 856.186,204.995 858.519,204.162 861.5,205C 874.087,210.102 886.087,216.268 897.5,223.5 Z"/></g>
<g><path style="opacity:1" fill="#1fc975" d="M 854.5,207.5 C 853.758,209.426 852.758,211.259 851.5,213C 848.735,215.101 845.735,216.767 842.5,218C 838.404,220.965 838.904,223.132 844,224.5C 845.283,230.994 842.783,235.327 836.5,237.5C 834.195,236.508 832.195,235.841 830.5,235.5C 832.921,233.875 835.587,232.542 838.5,231.5C 839.393,228.916 839.726,226.249 839.5,223.5C 838.022,223.238 836.689,223.571 835.5,224.5C 831.78,227.547 827.78,230.214 823.5,232.5C 826.133,229.84 828.8,227.173 831.5,224.5C 839.008,218.583 846.675,212.917 854.5,207.5 Z"/></g>
<g><path style="opacity:1" fill="#1cca77" d="M 213.5,213.5 C 225.069,220.778 236.069,228.778 246.5,237.5C 244.4,237.523 242.567,236.856 241,235.5C 237.857,238.001 234.357,239.168 230.5,239C 231.833,238 233.167,237 234.5,236C 232.167,234.333 230.167,232.333 228.5,230C 229.449,229.383 230.282,229.549 231,230.5C 231.667,229.5 231.667,228.5 231,227.5C 226.78,223.974 221.947,221.474 216.5,220C 215.167,219 215.167,218 216.5,217C 214.937,216.241 213.937,215.074 213.5,213.5 Z"/></g>
<g><path style="opacity:1" fill="#28c779" d="M 897.5,223.5 C 907.935,227.549 917.602,232.882 926.5,239.5C 924.416,238.752 922.416,238.752 920.5,239.5C 919.614,238.675 919.281,237.675 919.5,236.5C 916.467,234.544 913.134,232.877 909.5,231.5C 907.845,232.228 906.179,232.395 904.5,232C 905.022,231.439 905.355,230.772 905.5,230C 903.128,226.824 900.128,225.991 896.5,227.5C 896.167,227.167 895.833,226.833 895.5,226.5C 896.612,225.735 897.279,224.735 897.5,223.5 Z"/></g>
<g><path style="opacity:1" fill="#2bc078" d="M 248.5,239.5 C 254.2,243.016 259.533,247.016 264.5,251.5C 260.968,250.146 257.802,248.146 255,245.5C 254.667,245.833 254.333,246.167 254,246.5C 250.572,244.963 248.738,242.63 248.5,239.5 Z"/></g>
<g><path style="opacity:1" fill="#32be7b" d="M 943.5,249.5 C 948.833,252.5 954.167,255.5 959.5,258.5C 960.833,259.833 962.167,261.167 963.5,262.5C 957.512,260.063 951.846,257.063 946.5,253.5C 945.174,252.358 944.174,251.024 943.5,249.5 Z"/></g>
<g><path style="opacity:1" fill="#cbf8e0" d="M 559.5,261.5 C 538.157,261.389 516.824,261.722 495.5,262.5C 498.305,261.681 501.305,261.181 504.5,261C 523.005,260.171 541.338,260.338 559.5,261.5 Z"/></g>
<g><path style="opacity:1" fill="#e0f0e6" d="M 479.5,263.5 C 474.167,264.5 468.833,265.5 463.5,266.5C 457.949,266.527 452.616,267.194 447.5,268.5C 444.833,268.5 442.167,268.5 439.5,268.5C 441.382,267.763 442.048,266.596 441.5,265C 443.473,264.505 445.473,264.338 447.5,264.5C 447.5,263.5 447.5,262.5 447.5,261.5C 452.179,261.334 456.845,261.501 461.5,262C 463.062,263.378 464.895,264.211 467,264.5C 471.137,263.763 475.303,263.429 479.5,263.5 Z"/></g>
<g><path style="opacity:1" fill="#4ac68a" d="M 559.5,261.5 C 571.725,261.534 583.725,262.534 595.5,264.5C 583.303,264.624 571.303,263.958 559.5,262.5C 559.5,262.167 559.5,261.833 559.5,261.5 Z"/></g>
<g><path style="opacity:1" fill="#25c479" d="M 559.5,261.5 C 559.5,261.833 559.5,262.167 559.5,262.5C 545.468,262.209 531.468,262.709 517.5,264C 517.833,264.333 518.167,264.667 518.5,265C 517.127,265.875 515.627,266.375 514,266.5C 509.431,265.319 504.765,264.652 500,264.5C 487.85,265.498 475.683,266.165 463.5,266.5C 468.833,265.5 474.167,264.5 479.5,263.5C 485.026,263.821 490.36,263.488 495.5,262.5C 516.824,261.722 538.157,261.389 559.5,261.5 Z"/></g>
<g><path style="opacity:1" fill="#d0f1de" d="M 623.5,266.5 C 631.604,266.36 639.604,267.193 647.5,269C 648.056,269.383 648.389,269.883 648.5,270.5C 639.986,269.469 631.653,268.136 623.5,266.5 Z"/></g>
<g><path style="opacity:1" fill="#d7f7e4" d="M 786.5,262.5 C 783.769,266.234 780.436,269.234 776.5,271.5C 777.204,267.463 779.537,265.13 783.5,264.5C 782.956,260.36 783.956,259.693 786.5,262.5 Z"/></g>
<g><path style="opacity:1" fill="#43bf80" d="M 439.5,268.5 C 442.167,268.5 444.833,268.5 447.5,268.5C 442.383,269.989 437.049,270.989 431.5,271.5C 433.857,269.902 436.523,268.902 439.5,268.5 Z"/></g>
<g><path style="opacity:1" fill="#3bc081" d="M 423.5,271.5 C 423.119,272.931 422.119,273.764 420.5,274C 412.802,275.008 405.136,276.175 397.5,277.5C 397.918,276.778 398.584,276.278 399.5,276C 407.55,274.637 415.55,273.137 423.5,271.5 Z"/></g>
<g><path style="opacity:1" fill="#ddefe6" d="M 715.5,284.5 C 711.5,283.833 707.5,283.167 703.5,282.5C 698.025,280.84 692.691,279.173 687.5,277.5C 693.723,277.129 699.89,277.129 706,277.5C 709.085,279.199 708.585,280.366 704.5,281C 707.167,281.333 709.833,281.667 712.5,282C 713.942,282.377 714.942,283.21 715.5,284.5 Z"/></g>
<g><path style="opacity:1" fill="#3cb77e" d="M 396.5,277.5 C 392.595,279.876 388.261,280.876 383.5,280.5C 387.575,278.882 391.908,277.882 396.5,277.5 Z"/></g>
<g><path style="opacity:1" fill="#1bc976" d="M 655.5,271.5 C 666.038,274.141 676.705,276.141 687.5,277.5C 692.691,279.173 698.025,280.84 703.5,282.5C 698.941,282.289 694.441,281.622 690,280.5C 688.203,281.266 686.369,281.932 684.5,282.5C 680.37,280.872 676.036,279.872 671.5,279.5C 671.64,277.876 670.973,276.71 669.5,276C 664.898,274.878 660.232,274.378 655.5,274.5C 655.5,273.5 655.5,272.5 655.5,271.5 Z"/></g>
<g><path style="opacity:1" fill="#dff2e7" d="M 959.5,258.5 C 961.747,258.915 963.914,259.582 966,260.5C 968.086,259.582 970.253,258.915 972.5,258.5C 972.5,259.833 972.5,261.167 972.5,262.5C 971.167,262.5 969.833,262.5 968.5,262.5C 968.5,263.833 968.5,265.167 968.5,266.5C 970.861,266.326 973.194,265.993 975.5,265.5C 974.84,269.512 972.506,271.512 968.5,271.5C 968.5,276.833 968.5,282.167 968.5,287.5C 969.675,287.281 970.675,287.614 971.5,288.5C 970.906,291.83 970.24,295.164 969.5,298.5C 968.808,297.975 968.308,297.308 968,296.5C 967.814,299.036 967.314,301.369 966.5,303.5C 966.5,301.5 966.5,299.5 966.5,297.5C 966.667,286.162 966.5,274.828 966,263.5C 965.617,262.944 965.117,262.611 964.5,262.5C 964.167,262.5 963.833,262.5 963.5,262.5C 962.167,261.167 960.833,259.833 959.5,258.5 Z"/></g>
<g><path style="opacity:1" fill="#21c978" d="M 303.5,283.5 C 308.259,286.753 312.592,290.587 316.5,295C 318.067,296.076 319.734,296.909 321.5,297.5C 328.573,294.565 335.906,292.565 343.5,291.5C 341.369,293.685 338.703,295.018 335.5,295.5C 336.025,296.192 336.692,296.692 337.5,297C 334.978,297.499 332.478,297.332 330,296.5C 324.987,299.095 319.987,299.095 315,296.5C 314.05,297.022 313.216,297.689 312.5,298.5C 310.774,295.773 308.441,293.773 305.5,292.5C 303.87,289.724 303.203,286.724 303.5,283.5 Z"/></g>
<g><path style="opacity:1" fill="#2fc77c" d="M 722.5,287.5 C 732.261,289.666 741.928,292.333 751.5,295.5C 754.52,292.811 757.52,290.144 760.5,287.5C 755.75,297.355 748.75,299.189 739.5,293C 734.833,292.667 730.167,292.333 725.5,292C 723.561,291.092 722.561,289.592 722.5,287.5 Z"/></g>
<g><path style="opacity:1" fill="#b8e7cc" d="M 876.5,311.5 C 876.83,304.468 876.497,297.468 875.5,290.5C 874.264,291.246 872.93,291.579 871.5,291.5C 872.736,289.957 874.402,288.957 876.5,288.5C 877.82,296.323 877.82,303.99 876.5,311.5 Z"/></g>
<g><path style="opacity:1" fill="#cbf3da" d="M 199.5,301.5 C 198.07,301.579 196.736,301.246 195.5,300.5C 194.501,315.819 194.167,331.152 194.5,346.5C 193.173,330.662 193.173,314.662 194.5,298.5C 196.396,299.275 198.063,300.275 199.5,301.5 Z"/></g>
<g><path style="opacity:1" fill="#40b97e" d="M 852.5,303.5 C 850.049,306.277 847.049,308.277 843.5,309.5C 843.5,308.5 843.5,307.5 843.5,306.5C 844.833,306.5 846.167,306.5 847.5,306.5C 847.5,305.5 847.5,304.5 847.5,303.5C 849.167,303.5 850.833,303.5 852.5,303.5 Z"/></g>
<g><path style="opacity:1" fill="#2db779" d="M 964.5,262.5 C 965.117,262.611 965.617,262.944 966,263.5C 966.5,274.828 966.667,286.162 966.5,297.5C 965.492,309.994 964.825,322.66 964.5,335.5C 964.167,335.5 963.833,335.5 963.5,335.5C 964.073,315.666 964.74,295.833 965.5,276C 965.441,271.451 965.107,266.951 964.5,262.5 Z"/></g>
<g><path style="opacity:1" fill="#bef4d8" d="M 966.5,297.5 C 966.5,299.5 966.5,301.5 966.5,303.5C 966.5,308.833 966.5,314.167 966.5,319.5C 966.125,325.009 965.458,330.342 964.5,335.5C 964.825,322.66 965.492,309.994 966.5,297.5 Z"/></g>
<g><path style="opacity:1" fill="#21c073" d="M 527.5,312.5 C 516.833,313.167 506.167,313.833 495.5,314.5C 480.325,315.051 465.325,316.717 450.5,319.5C 452.148,318.073 454.148,317.24 456.5,317C 463.824,317.178 470.491,315.345 476.5,311.5C 493.453,312.486 510.453,312.819 527.5,312.5 Z"/></g>
<g><path style="opacity:1" fill="#c2efd7" d="M 527.5,312.5 C 546.166,312.879 564.832,313.213 583.5,313.5C 583.5,313.833 583.5,314.167 583.5,314.5C 554.167,314.5 524.833,314.5 495.5,314.5C 506.167,313.833 516.833,313.167 527.5,312.5 Z"/></g>
<g><path style="opacity:1" fill="#39b779" d="M 583.5,314.5 C 583.5,314.167 583.5,313.833 583.5,313.5C 591.908,313.508 599.908,314.508 607.5,316.5C 599.477,315.907 591.477,315.24 583.5,314.5 Z"/></g>
<g><path style="opacity:1" fill="#2bc078" d="M 211.5,307.5 C 214.48,307.62 217.313,308.287 220,309.5C 220.333,309.167 220.667,308.833 221,308.5C 222.438,309.9 223.271,311.567 223.5,313.5C 224.873,313.343 226.207,313.51 227.5,314C 229.697,316.614 232.197,318.78 235,320.5C 235.464,321.094 235.631,321.761 235.5,322.5C 227.156,317.997 219.156,312.997 211.5,307.5 Z"/></g>
<g><path style="opacity:1" fill="#acdec3" d="M 838.5,313.5 C 837.524,314.815 836.524,316.148 835.5,317.5C 836.025,318.192 836.692,318.692 837.5,319C 835.527,319.495 833.527,319.662 831.5,319.5C 833.418,316.974 835.751,314.974 838.5,313.5 Z"/></g>
<g><path style="opacity:1" fill="#2cbd78" d="M 876.5,335.5 C 876.5,330.167 876.5,324.833 876.5,319.5C 876.5,316.833 876.5,314.167 876.5,311.5C 877.82,303.99 877.82,296.323 876.5,288.5C 874.402,288.957 872.736,289.957 871.5,291.5C 869.833,292.167 868.167,292.833 866.5,293.5C 868.053,291.687 869.72,289.853 871.5,288C 873.81,287.503 876.143,287.337 878.5,287.5C 879.151,303.868 878.485,319.868 876.5,335.5 Z"/></g>
<g><path style="opacity:1" fill="#32b575" d="M 204.5,303.5 C 202.833,302.833 201.167,302.167 199.5,301.5C 198.063,300.275 196.396,299.275 194.5,298.5C 193.173,314.662 193.173,330.662 194.5,346.5C 194.5,348.167 194.5,349.833 194.5,351.5C 193.732,350.737 193.232,349.737 193,348.5C 192.744,331.483 192.244,314.483 191.5,297.5C 195.347,297.619 199.014,296.953 202.5,295.5C 202.287,298.451 202.954,301.118 204.5,303.5 Z"/></g>
<g><path style="opacity:1" fill="#e8eeeb" d="M 963.5,351.5 C 963.5,346.167 963.5,340.833 963.5,335.5C 963.833,335.5 964.167,335.5 964.5,335.5C 965.458,330.342 966.125,325.009 966.5,319.5C 968.134,314.563 969.134,309.229 969.5,303.5C 970.77,309.344 970.77,315.177 969.5,321C 971.139,325.528 972.139,330.194 972.5,335C 971.926,345.891 971.259,356.724 970.5,367.5C 969.41,361.904 968.077,356.57 966.5,351.5C 967.5,351.5 968.5,351.5 969.5,351.5C 970.778,346.147 970.611,340.813 969,335.5C 968.5,338 968,340.5 967.5,343C 965.375,345.505 964.042,348.339 963.5,351.5 Z"/></g>
<g><path style="opacity:1" fill="#45ac79" d="M 634.5,319.5 C 639.471,319.656 644.138,320.656 648.5,322.5C 643.55,322.23 638.883,321.23 634.5,319.5 Z"/></g>
<g><path style="opacity:1" fill="#2bc077" d="M 445.5,319.5 C 435.683,321.782 425.683,323.782 415.5,325.5C 415.5,324.167 415.5,322.833 415.5,321.5C 417.848,321.67 420.182,322.003 422.5,322.5C 424.067,322.523 425.4,322.023 426.5,321C 421.719,320.301 421.553,319.801 426,319.5C 432.498,320.667 438.998,320.667 445.5,319.5 Z"/></g>
<g><path style="opacity:1" fill="#2fbc78" d="M 687.5,330.5 C 674.23,328.564 661.23,325.897 648.5,322.5C 653.544,322.727 658.544,322.394 663.5,321.5C 665.708,322.272 665.375,323.105 662.5,324C 665.23,324.728 667.897,324.562 670.5,323.5C 671.386,324.325 671.719,325.325 671.5,326.5C 674.85,326.335 678.183,326.502 681.5,327C 683.257,328.75 685.257,329.916 687.5,330.5 Z"/></g>
<g><path style="opacity:1" fill="#32b97a" d="M 112.5,319.5 C 113.792,327.104 114.958,334.771 116,342.5C 116.537,351.836 117.037,361.169 117.5,370.5C 114.898,353.734 113.232,336.734 112.5,319.5 Z"/></g>
<g><path style="opacity:1" fill="#41a482" d="M 373.5,335.5 C 371.698,336.458 369.698,337.125 367.5,337.5C 368.918,335.692 370.918,335.025 373.5,335.5 Z"/></g>
<g><path style="opacity:1" fill="#28c274" d="M 705.5,335.5 C 710.345,336.651 715.178,336.651 720,335.5C 720.5,335.667 721,335.833 721.5,336C 719.355,336.743 719.189,337.576 721,338.5C 724.21,336.035 727.71,335.368 731.5,336.5C 728.93,337.223 726.597,338.39 724.5,340C 728.307,341.428 731.974,342.928 735.5,344.5C 725.276,341.866 715.276,338.866 705.5,335.5 Z"/></g>
<g><path style="opacity:1" fill="#c9efdc" d="M 876.5,319.5 C 876.5,324.833 876.5,330.167 876.5,335.5C 875.901,346.309 875.235,356.976 874.5,367.5C 873.849,351.132 874.515,335.132 876.5,319.5 Z"/></g>
<g><path style="opacity:1" fill="#1fc574" d="M 365.5,337.5 C 348.89,343.157 332.223,348.824 315.5,354.5C 317.399,352.731 319.732,351.398 322.5,350.5C 321.5,349.833 320.5,349.167 319.5,348.5C 319.667,348.167 319.833,347.833 320,347.5C 322.401,348.602 324.901,348.769 327.5,348C 326.476,346.633 326.976,345.8 329,345.5C 331.099,346.287 333.266,346.62 335.5,346.5C 335.187,343.753 335.52,341.086 336.5,338.5C 338.276,336.553 340.276,336.22 342.5,337.5C 338.387,338.55 337.053,340.883 338.5,344.5C 341.4,344.72 344.067,344.054 346.5,342.5C 345.5,341.667 344.5,340.833 343.5,340C 345.991,339.741 348.491,339.907 351,340.5C 355.646,338.918 360.479,337.918 365.5,337.5 Z"/></g>
<g><path style="opacity:1" fill="#25c576" d="M 735.5,344.5 C 738.693,345.011 741.859,345.678 745,346.5C 747.194,345.921 749.36,345.254 751.5,344.5C 754.017,346.164 756.683,347.664 759.5,349C 758.5,349.333 757.5,349.667 756.5,350C 762.459,352.644 768.459,355.311 774.5,358C 777.482,358.498 780.482,358.665 783.5,358.5C 782.594,359.965 781.261,360.965 779.5,361.5C 764.734,355.641 750.067,349.975 735.5,344.5 Z"/></g>
<g><path style="opacity:1" fill="#24ca75" d="M 815.5,330.5 C 804.878,339.782 794.212,349.115 783.5,358.5C 783.196,357.85 782.863,357.183 782.5,356.5C 785.342,355.996 786.675,354.329 786.5,351.5C 785.5,351.5 784.5,351.5 783.5,351.5C 783.33,348.509 784.663,346.509 787.5,345.5C 788.711,346.274 788.711,347.107 787.5,348C 789.568,348.687 791.568,348.52 793.5,347.5C 793.868,345.2 793.868,343.033 793.5,341C 792.692,340.692 792.025,340.192 791.5,339.5C 795.752,339.605 800.085,339.272 804.5,338.5C 807.229,336.633 806.896,335.633 803.5,335.5C 803.065,332.387 804.065,331.721 806.5,333.5C 809.028,331.126 812.028,330.126 815.5,330.5 Z"/></g>
<g><path style="opacity:1" fill="#37b67a" d="M 278.5,351.5 C 280.78,352.64 283.114,353.807 285.5,355C 288.859,359.209 293.192,361.376 298.5,361.5C 296.881,363.238 294.881,363.738 292.5,363C 287.328,359.65 282.662,355.817 278.5,351.5 Z"/></g>
<g><path style="opacity:1" fill="#c2edd4" d="M 963.5,351.5 C 963.179,359.174 962.679,366.841 962,374.5C 961.901,376.653 961.067,378.319 959.5,379.5C 960.71,370.015 962.043,360.681 963.5,351.5 Z"/></g>
<g><path style="opacity:1" fill="#28bd78" d="M 194.5,351.5 C 195.657,367.369 196.99,383.369 198.5,399.5C 196.836,398.051 196.002,396.051 196,393.5C 195.001,379.516 194.501,365.516 194.5,351.5 Z"/></g>
<g><path style="opacity:1" fill="#33b274" d="M 872.5,391.5 C 872.666,395.846 872.499,400.179 872,404.5C 871.768,405.737 871.268,406.737 870.5,407.5C 870.952,402.002 871.619,396.669 872.5,391.5 Z"/></g>
<g><path style="opacity:1" fill="#2fb072" d="M 198.5,399.5 C 199.458,404.658 200.125,409.991 200.5,415.5C 198.554,410.604 197.887,405.271 198.5,399.5 Z"/></g>
<g><path style="opacity:1" fill="#37bb7a" d="M 122.5,405.5 C 123.117,405.611 123.617,405.944 124,406.5C 125.272,414.797 126.106,423.13 126.5,431.5C 124.756,423.029 123.423,414.362 122.5,405.5 Z"/></g>
<g><path style="opacity:1" fill="#daf0e5" d="M 120.5,399.5 C 121.167,401.5 121.833,403.5 122.5,405.5C 123.423,414.362 124.756,423.029 126.5,431.5C 127.461,433.265 127.795,435.265 127.5,437.5C 122.08,436.19 121.08,433.19 124.5,428.5C 123.355,423.193 122.355,417.86 121.5,412.5C 120.833,415.833 120.167,419.167 119.5,422.5C 119.167,421.333 118.833,420.167 118.5,419C 119.86,412.567 120.527,406.067 120.5,399.5 Z"/></g>
<g><path style="opacity:1" fill="#30c077" d="M 201.5,424.5 C 203.863,433.478 205.863,442.645 207.5,452C 206.606,455.625 204.606,458.458 201.5,460.5C 202.95,458.107 203.617,455.44 203.5,452.5C 202.868,443.153 202.201,433.819 201.5,424.5 Z"/></g>
<g><path style="opacity:1" fill="#2bbf78" d="M 870.5,409.5 C 870.714,419.67 870.047,429.67 868.5,439.5C 868.291,444.676 868.957,449.676 870.5,454.5C 866.034,452.794 864.368,449.461 865.5,444.5C 866.676,432.635 868.342,420.968 870.5,409.5 Z"/></g>
<g><path style="opacity:1" fill="#38b87b" d="M 948.5,447.5 C 947.277,454.721 945.61,461.721 943.5,468.5C 943.999,463.508 944.499,458.508 945,453.5C 945.739,451.111 946.905,449.111 948.5,447.5 Z"/></g>
<g><path style="opacity:1" fill="#45aa78" d="M 196.5,463.5 C 195.421,465.543 193.754,466.876 191.5,467.5C 192.265,465.071 193.931,463.738 196.5,463.5 Z"/></g>
<g><path style="opacity:1" fill="#30b777" d="M 191.5,467.5 C 188.149,470.848 184.482,473.848 180.5,476.5C 180.5,475.167 180.5,473.833 180.5,472.5C 181.873,472.657 183.207,472.49 184.5,472C 186.734,470.25 189.068,468.75 191.5,467.5 Z"/></g>
<g><path style="opacity:1" fill="#43b97a" d="M 175.5,481.5 C 172.149,484.848 168.482,487.848 164.5,490.5C 164.34,488.801 164.506,487.134 165,485.5C 167.988,486.744 170.155,485.744 171.5,482.5C 172.689,481.571 174.022,481.238 175.5,481.5 Z"/></g>
<g><path style="opacity:1" fill="#29bf75" d="M 886.5,467.5 C 889.768,467.634 892.102,469.134 893.5,472C 896.621,472.726 899.287,474.226 901.5,476.5C 903.535,477.041 905.535,477.708 907.5,478.5C 906.833,479.167 906.167,479.833 905.5,480.5C 906.803,482.937 908.47,485.104 910.5,487C 913.514,486.855 916.514,486.355 919.5,485.5C 919.095,487.65 918.595,489.65 918,491.5C 922.189,496.687 926.689,501.52 931.5,506C 932.577,506.47 933.577,506.303 934.5,505.5C 934.489,507.686 933.489,508.519 931.5,508C 916.604,494.264 901.604,480.764 886.5,467.5 Z"/></g>
<g><path style="opacity:1" fill="#f4e8ee" d="M 589.5,480.5 C 617.328,479.502 645.328,479.169 673.5,479.5C 673.739,481.467 673.406,483.301 672.5,485C 674.677,486.186 675.677,488.019 675.5,490.5C 647.492,490.833 619.492,490.5 591.5,489.5C 618.158,488.5 644.825,488.167 671.5,488.5C 671.5,485.833 671.5,483.167 671.5,480.5C 643.959,480.522 616.625,480.522 589.5,480.5 Z"/></g>
<g><path style="opacity:1" fill="#bdddc9" d="M 324.5,496.5 C 324.167,496.5 323.833,496.5 323.5,496.5C 323.5,496.167 323.5,495.833 323.5,495.5C 323.389,494.883 323.056,494.383 322.5,494C 313.5,493.333 304.5,493.333 295.5,494C 294.944,494.383 294.611,494.883 294.5,495.5C 291.887,494.905 291.887,494.071 294.5,493C 303.368,492.792 312.202,492.292 321,491.5C 323.54,492.207 324.707,493.873 324.5,496.5 Z"/></g>
<g><path style="opacity:1" fill="#bed9c6" d="M 582.5,493.5 C 574.648,493.175 566.982,493.508 559.5,494.5C 558.791,495.404 557.791,495.737 556.5,495.5C 556.5,494.167 556.5,492.833 556.5,491.5C 565.311,492.081 573.977,492.748 582.5,493.5 Z"/></g>
<g><path style="opacity:1" fill="#9ebba7" d="M 693.5,493.5 C 701.984,492.507 710.651,492.174 719.5,492.5C 721.048,492.821 721.715,493.821 721.5,495.5C 721.167,495.5 720.833,495.5 720.5,495.5C 719.833,495.5 719.5,495.167 719.5,494.5C 711.35,493.507 703.017,493.174 694.5,493.5C 694.167,493.5 693.833,493.5 693.5,493.5 Z"/></g>
<g><path style="opacity:1" fill="#32ac73" d="M 323.5,495.5 C 314.533,494.617 305.533,494.284 296.5,494.5C 296.5,495.833 296.5,497.167 296.5,498.5C 295.094,498.027 294.427,497.027 294.5,495.5C 294.611,494.883 294.944,494.383 295.5,494C 304.5,493.333 313.5,493.333 322.5,494C 323.056,494.383 323.389,494.883 323.5,495.5 Z"/></g>
<g><path style="opacity:1" fill="#2aae70" d="M 559.5,494.5 C 566.982,493.508 574.648,493.175 582.5,493.5C 582.969,496.764 581.969,499.764 579.5,502.5C 580.092,499.873 580.425,497.206 580.5,494.5C 573.5,494.5 566.5,494.5 559.5,494.5 Z"/></g>
<g><path style="opacity:1" fill="#04d272" d="M 591.5,493.5 C 620.835,493.333 650.169,493.5 679.5,494C 680.469,498.737 680.803,503.57 680.5,508.5C 659.258,508.173 638.091,508.506 617,509.5C 616.201,514.087 616.368,518.587 617.5,523C 635.671,523.829 653.671,523.662 671.5,522.5C 673.833,522.5 676.167,522.5 678.5,522.5C 678.5,527.833 678.5,533.167 678.5,538.5C 657.833,538.5 637.167,538.5 616.5,538.5C 616.182,543.032 616.515,547.366 617.5,551.5C 617.5,551.833 617.5,552.167 617.5,552.5C 617.5,552.833 617.5,553.167 617.5,553.5C 618.981,555.247 620.981,556.414 623.5,557C 631.5,557.167 639.5,557.333 647.5,557.5C 655.997,557.47 664.33,556.803 672.5,555.5C 672.758,557.909 672.758,560.242 672.5,562.5C 675.108,560.892 676.442,558.559 676.5,555.5C 677.822,555.33 678.989,555.663 680,556.5C 680.498,559.482 680.665,562.482 680.5,565.5C 679.127,565.343 677.793,565.51 676.5,566C 675.359,566.741 675.359,567.575 676.5,568.5C 648.175,569.5 619.841,569.833 591.5,569.5C 591.5,544.167 591.5,518.833 591.5,493.5 Z"/></g>
<g><path style="opacity:1" fill="#80c5a4" d="M 693.5,493.5 C 693.833,493.5 694.167,493.5 694.5,493.5C 694.169,519.339 694.502,545.005 695.5,570.5C 695.5,570.833 695.5,571.167 695.5,571.5C 693.509,545.855 692.842,519.855 693.5,493.5 Z"/></g>
<g><path style="opacity:1" fill="#2cb778" d="M 694.5,493.5 C 703.017,493.174 711.35,493.507 719.5,494.5C 712.833,494.5 706.167,494.5 699.5,494.5C 698.167,494.5 696.833,494.5 695.5,494.5C 695.5,519.833 695.5,545.167 695.5,570.5C 694.502,545.005 694.169,519.339 694.5,493.5 Z"/></g>
<g><path style="opacity:1" fill="#03d271" d="M 699.5,494.5 C 706.167,494.5 712.833,494.5 719.5,494.5C 719.5,495.167 719.833,495.5 720.5,495.5C 720.814,513.701 720.48,531.868 719.5,550C 719.836,551.03 720.503,551.53 721.5,551.5C 740.326,552.497 759.326,552.83 778.5,552.5C 778.5,557.167 778.5,561.833 778.5,566.5C 776.767,567.008 776.434,567.841 777.5,569C 774.854,569.497 772.187,569.664 769.5,569.5C 769.762,568.022 769.429,566.689 768.5,565.5C 757.658,566.811 746.658,567.478 735.5,567.5C 722.441,567.353 709.441,566.686 696.5,565.5C 696.566,542.267 696.566,518.934 696.5,495.5C 697.791,495.737 698.791,495.404 699.5,494.5 Z"/></g>
<g><path style="opacity:1" fill="#32a36d" d="M 720.5,495.5 C 720.833,495.5 721.167,495.5 721.5,495.5C 721.5,514.167 721.5,532.833 721.5,551.5C 720.503,551.53 719.836,551.03 719.5,550C 720.48,531.868 720.814,513.701 720.5,495.5 Z"/></g>
<g><path style="opacity:1" fill="#d7fde8" d="M 723.5,495.5 C 722.503,513.659 722.17,531.992 722.5,550.5C 740.167,550.5 757.833,550.5 775.5,550.5C 777.099,550.232 778.432,550.566 779.5,551.5C 760.167,551.5 740.833,551.5 721.5,551.5C 721.5,532.833 721.5,514.167 721.5,495.5C 721.715,493.821 721.048,492.821 719.5,492.5C 719.517,490.972 720.184,490.472 721.5,491C 723.037,492.11 723.703,493.61 723.5,495.5 Z"/></g>
<g><path style="opacity:1" fill="#26c677" d="M 135.5,471.5 C 137.655,473.617 138.655,476.284 138.5,479.5C 139.675,479.281 140.675,479.614 141.5,480.5C 140.262,483.166 140.262,485.832 141.5,488.5C 142.281,487.271 142.781,485.938 143,484.5C 143.279,488.17 143.112,491.837 142.5,495.5C 143.978,495.238 145.311,495.571 146.5,496.5C 145.754,497.736 145.421,499.07 145.5,500.5C 147.39,500.703 148.89,500.037 150,498.5C 151.699,499.406 153.533,499.739 155.5,499.5C 153.038,502.464 150.371,505.297 147.5,508C 146.551,508.617 145.718,508.451 145,507.5C 141.517,495.567 138.35,483.567 135.5,471.5 Z"/></g>
<g><path style="opacity:1" fill="#4dce8e" d="M 618.5,511.5 C 617.167,514.833 617.167,518.167 618.5,521.5C 635.992,522.497 653.659,522.83 671.5,522.5C 653.671,523.662 635.671,523.829 617.5,523C 616.368,518.587 616.201,514.087 617,509.5C 638.091,508.506 659.258,508.173 680.5,508.5C 680.803,503.57 680.469,498.737 679.5,494C 650.169,493.5 620.835,493.333 591.5,493.5C 621.148,491.508 651.148,490.841 681.5,491.5C 681.5,498.167 681.5,504.833 681.5,511.5C 660.5,511.5 639.5,511.5 618.5,511.5 Z"/></g>
<g><path style="opacity:1" fill="#f9e8ec" d="M 679.5,521.5 C 660.674,520.503 641.674,520.17 622.5,520.5C 621.065,519.015 621.232,517.682 623,516.5C 639.462,518.183 656.128,519.183 673,519.5C 673.5,519.167 674,518.833 674.5,518.5C 673.5,517.833 672.5,517.167 671.5,516.5C 674.768,515.513 678.102,515.18 681.5,515.5C 682.054,522.153 682.388,528.82 682.5,535.5C 683.675,535.281 684.675,535.614 685.5,536.5C 683.955,537.452 682.288,537.785 680.5,537.5C 680.821,531.974 680.488,526.64 679.5,521.5 Z"/></g>
<g><path style="opacity:1" fill="#d0f8e2" d="M 618.5,511.5 C 618.5,514.5 618.5,517.5 618.5,520.5C 619.833,520.5 621.167,520.5 622.5,520.5C 641.674,520.17 660.674,520.503 679.5,521.5C 659.167,521.5 638.833,521.5 618.5,521.5C 617.167,518.167 617.167,514.833 618.5,511.5 Z"/></g>
<g><path style="opacity:1" fill="#09d072" d="M 323.5,495.5 C 323.5,495.833 323.5,496.167 323.5,496.5C 323.737,499.647 324.57,502.647 326,505.5C 326.377,506.942 327.21,507.942 328.5,508.5C 329.404,509.209 329.737,510.209 329.5,511.5C 329.505,516.024 331.172,519.691 334.5,522.5C 335.451,523.919 335.784,525.585 335.5,527.5C 335.335,530.518 335.502,533.518 336,536.5C 336.535,534.729 337.369,534.396 338.5,535.5C 339.767,538.955 340.767,542.455 341.5,546C 344.82,546.553 347.486,545.386 349.5,542.5C 348.652,540.591 348.318,538.591 348.5,536.5C 351.321,528.882 353.987,521.215 356.5,513.5C 357.167,512.833 357.833,512.167 358.5,511.5C 359.833,510.5 361.167,509.5 362.5,508.5C 413.791,507.509 465.125,507.176 516.5,507.5C 518.062,507.733 519.395,508.4 520.5,509.5C 523.614,515.172 525.948,521.172 527.5,527.5C 529.176,532.535 531.176,537.535 533.5,542.5C 533.957,543.298 534.624,543.631 535.5,543.5C 536.167,543.5 536.833,543.5 537.5,543.5C 539.306,541.911 540.639,539.911 541.5,537.5C 542.251,538.376 542.751,539.376 543,540.5C 542.364,536.524 542.531,532.524 543.5,528.5C 547.624,517.471 551.957,506.471 556.5,495.5C 557.791,495.737 558.791,495.404 559.5,494.5C 566.5,494.5 573.5,494.5 580.5,494.5C 580.425,497.206 580.092,499.873 579.5,502.5C 576.286,511.922 572.286,520.922 567.5,529.5C 565.784,532.573 563.784,535.573 561.5,538.5C 560.322,541.391 559.655,544.391 559.5,547.5C 559.598,549.553 558.931,551.22 557.5,552.5C 556.624,552.369 555.957,552.702 555.5,553.5C 553.676,559.14 551.342,564.473 548.5,569.5C 540.231,571.47 531.565,572.136 522.5,571.5C 522.167,570.167 521.833,568.833 521.5,567.5C 521.38,564.422 520.38,561.755 518.5,559.5C 515.654,553.79 513.32,547.79 511.5,541.5C 511.376,537.588 510.376,533.921 508.5,530.5C 510.536,524.327 512.87,518.327 515.5,512.5C 515,512.167 514.5,511.833 514,511.5C 512.908,512.296 511.741,512.963 510.5,513.5C 507.79,512.389 504.956,511.723 502,511.5C 458.5,512.801 415,512.801 371.5,511.5C 371.5,512.5 371.5,513.5 371.5,514.5C 375.301,514.355 379.301,514.021 383.5,513.5C 383.5,514.833 383.5,516.167 383.5,517.5C 381.5,517.5 379.5,517.5 377.5,517.5C 377.386,519.718 376.72,521.718 375.5,523.5C 374.417,523.539 373.417,523.873 372.5,524.5C 371.52,527.086 371.187,529.753 371.5,532.5C 370.291,538.462 368.291,544.129 365.5,549.5C 363.5,551.972 361.167,554.138 358.5,556C 359.428,556.388 360.095,557.055 360.5,558C 360.036,562.002 358.702,565.669 356.5,569C 346.756,569.806 337.089,569.639 327.5,568.5C 326.326,567.486 325.66,566.153 325.5,564.5C 324.66,558.807 323.66,553.14 322.5,547.5C 319.682,547.343 317.682,546.009 316.5,543.5C 309,528.837 302.334,513.837 296.5,498.5C 296.5,497.167 296.5,495.833 296.5,494.5C 305.533,494.284 314.533,494.617 323.5,495.5 Z"/></g>
<g><path style="opacity:1" fill="#dcf7e9" d="M 375.5,525.5 C 418.168,525.333 460.835,525.5 503.5,526C 504.056,526.383 504.389,526.883 504.5,527.5C 461.167,526.167 417.833,526.167 374.5,527.5C 374.328,526.508 374.662,525.842 375.5,525.5 Z"/></g>
<g><path style="opacity:1" fill="#6cc59c" d="M 375.5,525.5 C 418.33,524.501 461.33,524.168 504.5,524.5C 505.11,525.391 505.443,526.391 505.5,527.5C 505.167,527.5 504.833,527.5 504.5,527.5C 504.389,526.883 504.056,526.383 503.5,526C 460.835,525.5 418.168,525.333 375.5,525.5 Z"/></g>
<g><path style="opacity:1" fill="#29bf7a" d="M 375.5,523.5 C 377.167,523.5 378.833,523.5 380.5,523.5C 381.5,523.5 382.5,523.5 383.5,523.5C 424.003,523.168 464.337,523.501 504.5,524.5C 461.33,524.168 418.33,524.501 375.5,525.5C 374.662,525.842 374.328,526.508 374.5,527.5C 373.687,529.261 372.687,530.928 371.5,532.5C 371.187,529.753 371.52,527.086 372.5,524.5C 373.417,523.873 374.417,523.539 375.5,523.5 Z"/></g>
<g><path style="opacity:1" fill="#45b77f" d="M 329.5,511.5 C 331.951,514.74 333.618,518.407 334.5,522.5C 331.172,519.691 329.505,516.024 329.5,511.5 Z"/></g>
<g><path style="opacity:1" fill="#06cf73" d="M 508.5,530.5 C 507.728,529.306 506.728,528.306 505.5,527.5C 505.443,526.391 505.11,525.391 504.5,524.5C 464.337,523.501 424.003,523.168 383.5,523.5C 421.998,522.667 460.665,522.167 499.5,522C 498.315,520.647 496.981,519.48 495.5,518.5C 463.5,517.167 431.5,517.167 399.5,518.5C 392.8,519.168 386.133,520.001 379.5,521C 380.252,521.671 380.586,522.504 380.5,523.5C 378.833,523.5 377.167,523.5 375.5,523.5C 376.72,521.718 377.386,519.718 377.5,517.5C 379.5,517.5 381.5,517.5 383.5,517.5C 383.5,516.167 383.5,514.833 383.5,513.5C 379.301,514.021 375.301,514.355 371.5,514.5C 371.5,513.5 371.5,512.5 371.5,511.5C 415,512.801 458.5,512.801 502,511.5C 504.956,511.723 507.79,512.389 510.5,513.5C 511.741,512.963 512.908,512.296 514,511.5C 514.5,511.833 515,512.167 515.5,512.5C 512.87,518.327 510.536,524.327 508.5,530.5 Z"/></g>
<g><path style="opacity:1" fill="#02d36f" d="M 383.5,523.5 C 382.5,523.5 381.5,523.5 380.5,523.5C 380.586,522.504 380.252,521.671 379.5,521C 386.133,520.001 392.8,519.168 399.5,518.5C 431.5,517.167 463.5,517.167 495.5,518.5C 496.981,519.48 498.315,520.647 499.5,522C 460.665,522.167 421.998,522.667 383.5,523.5 Z"/></g>
<g><path style="opacity:1" fill="#3ca877" d="M 516.5,505.5 C 516.833,505.5 517.167,505.5 517.5,505.5C 519.229,506.236 520.229,507.57 520.5,509.5C 519.395,508.4 518.062,507.733 516.5,507.5C 465.668,506.335 414.668,506.168 363.5,507C 362.944,507.383 362.611,507.883 362.5,508.5C 361.167,509.5 359.833,510.5 358.5,511.5C 358.658,509.179 359.658,507.346 361.5,506C 413.166,505.5 464.832,505.333 516.5,505.5 Z"/></g>
<g><path style="opacity:1" fill="#0fc87a" d="M 516.5,507.5 C 465.125,507.176 413.791,507.509 362.5,508.5C 362.611,507.883 362.944,507.383 363.5,507C 414.668,506.168 465.668,506.335 516.5,507.5 Z"/></g>
<g><path style="opacity:1" fill="#dbf5e5" d="M 516.5,505.5 C 464.832,505.333 413.166,505.5 361.5,506C 359.658,507.346 358.658,509.179 358.5,511.5C 357.833,512.167 357.167,512.833 356.5,513.5C 356.321,511.046 356.987,508.879 358.5,507C 357.968,504.98 356.635,504.147 354.5,504.5C 354.5,503.5 354.5,502.5 354.5,501.5C 356.379,500.659 358.379,500.325 360.5,500.5C 360.5,501.833 360.5,503.167 360.5,504.5C 412.669,504.168 464.669,504.501 516.5,505.5 Z"/></g>
<g><path style="opacity:1" fill="#f3eaec" d="M 517.5,505.5 C 517.167,505.5 516.833,505.5 516.5,505.5C 464.669,504.501 412.669,504.168 360.5,504.5C 360.5,503.167 360.5,501.833 360.5,500.5C 358.379,500.325 356.379,500.659 354.5,501.5C 353.685,502.429 352.852,503.429 352,504.5C 350.667,499.67 352.501,497.004 357.5,496.5C 360.648,498.435 363.981,499.768 367.5,500.5C 367.5,501.5 367.5,502.5 367.5,503.5C 415.505,503.833 463.505,503.5 511.5,502.5C 340.837,500.667 340.837,499.833 511.5,500C 514.862,501.915 518.529,502.915 522.5,503C 522.957,503.414 523.291,503.914 523.5,504.5C 521.604,505.466 519.604,505.799 517.5,505.5 Z"/></g>
<g><path style="opacity:1" fill="#3fb17a" d="M 323.5,496.5 C 323.833,496.5 324.167,496.5 324.5,496.5C 325.833,500.5 327.167,504.5 328.5,508.5C 327.21,507.942 326.377,506.942 326,505.5C 324.57,502.647 323.737,499.647 323.5,496.5 Z"/></g>
<g><path style="opacity:1" fill="#3bb078" d="M 505.5,527.5 C 506.728,528.306 507.728,529.306 508.5,530.5C 510.376,533.921 511.376,537.588 511.5,541.5C 509.324,536.992 507.324,532.325 505.5,527.5 Z"/></g>
<g><path style="opacity:1" fill="#41b27b" d="M 527.5,527.5 C 531.105,532.281 533.771,537.614 535.5,543.5C 534.624,543.631 533.957,543.298 533.5,542.5C 531.176,537.535 529.176,532.535 527.5,527.5 Z"/></g>
<g><path style="opacity:1" fill="#32be77" d="M 543.5,528.5 C 542.531,532.524 542.364,536.524 543,540.5C 542.751,539.376 542.251,538.376 541.5,537.5C 540.639,539.911 539.306,541.911 537.5,543.5C 538.747,538.072 540.747,533.072 543.5,528.5 Z"/></g>
<g><path style="opacity:1" fill="#26b574" d="M 618.5,521.5 C 638.833,521.5 659.167,521.5 679.5,521.5C 679.5,527.5 679.5,533.5 679.5,539.5C 659.497,539.333 639.497,539.5 619.5,540C 617.924,542.951 617.257,546.117 617.5,549.5C 617.5,550.167 617.5,550.833 617.5,551.5C 616.515,547.366 616.182,543.032 616.5,538.5C 637.167,538.5 657.833,538.5 678.5,538.5C 678.5,533.167 678.5,527.833 678.5,522.5C 676.167,522.5 673.833,522.5 671.5,522.5C 653.659,522.83 635.992,522.497 618.5,521.5 Z"/></g>
<g><path style="opacity:1" fill="#3db37a" d="M 567.5,529.5 C 565.344,535.804 562.678,541.804 559.5,547.5C 559.655,544.391 560.322,541.391 561.5,538.5C 563.784,535.573 565.784,532.573 567.5,529.5 Z"/></g>
<g><path style="opacity:1" fill="#fbe5ec" d="M 682.5,552.5 C 681.829,551.153 681.829,549.986 682.5,549C 684.107,549.019 685.774,549.185 687.5,549.5C 687.116,547.071 686.449,544.737 685.5,542.5C 664.833,542.5 644.167,542.5 623.5,542.5C 623.813,545.247 623.48,547.914 622.5,550.5C 621.294,548.516 621.294,546.516 622.5,544.5C 621.147,543.476 620.48,542.143 620.5,540.5C 640.167,540.5 659.833,540.5 679.5,540.5C 682.137,539.37 684.803,539.37 687.5,540.5C 688.055,532.831 687.388,525.331 685.5,518C 686.388,516.78 687.055,515.447 687.5,514C 686.439,507.86 686.273,501.694 687,495.5C 687.826,493.595 688.993,493.261 690.5,494.5C 688.692,516.006 687.858,537.673 688,559.5C 687.667,557.167 687.333,554.833 687,552.5C 685.586,553.413 684.086,553.413 682.5,552.5 Z"/></g>
<g><path style="opacity:1" fill="#28c378" d="M 335.5,527.5 C 336.497,527.47 337.164,527.97 337.5,529C 339.474,533.756 341.141,538.59 342.5,543.5C 343.675,543.719 344.675,543.386 345.5,542.5C 346.519,540.396 347.519,538.396 348.5,536.5C 348.318,538.591 348.652,540.591 349.5,542.5C 347.486,545.386 344.82,546.553 341.5,546C 340.767,542.455 339.767,538.955 338.5,535.5C 337.369,534.396 336.535,534.729 336,536.5C 335.502,533.518 335.335,530.518 335.5,527.5 Z"/></g>
<g><path style="opacity:1" fill="#e7ede8" d="M 679.5,539.5 C 679.5,539.833 679.5,540.167 679.5,540.5C 659.833,540.5 640.167,540.5 620.5,540.5C 620.48,542.143 621.147,543.476 622.5,544.5C 621.294,546.516 621.294,548.516 622.5,550.5C 623.48,547.914 623.813,545.247 623.5,542.5C 644.167,542.5 664.833,542.5 685.5,542.5C 686.449,544.737 687.116,547.071 687.5,549.5C 685.774,549.185 684.107,549.019 682.5,549C 681.829,549.986 681.829,551.153 682.5,552.5C 681.833,552.5 681.167,552.5 680.5,552.5C 659.441,552.144 638.441,551.144 617.5,549.5C 617.257,546.117 617.924,542.951 619.5,540C 639.497,539.5 659.497,539.333 679.5,539.5 Z"/></g>
<g><path style="opacity:1" fill="#f7e8ec" d="M 723.5,495.5 C 724.497,512.992 724.83,530.659 724.5,548.5C 725.833,548.5 727.167,548.5 728.5,548.5C 729.167,541.833 729.833,541.833 730.5,548.5C 744.183,548.833 757.85,548.499 771.5,547.5C 770.482,546.148 769.149,545.148 767.5,544.5C 768.333,544.167 769.167,543.833 770,543.5C 774.441,545.365 778.941,546.032 783.5,545.5C 781.754,546.395 779.92,547.062 778,547.5C 776.69,548.13 775.856,549.13 775.5,550.5C 757.833,550.5 740.167,550.5 722.5,550.5C 722.17,531.992 722.503,513.659 723.5,495.5 Z"/></g>
<g><path style="opacity:1" fill="#b1f8d9" d="M 617.5,549.5 C 638.441,551.144 659.441,552.144 680.5,552.5C 659.5,552.5 638.5,552.5 617.5,552.5C 617.5,552.167 617.5,551.833 617.5,551.5C 617.5,550.833 617.5,550.167 617.5,549.5 Z"/></g>
<g><path style="opacity:1" fill="#30bd78" d="M 316.5,543.5 C 317.682,546.009 319.682,547.343 322.5,547.5C 323.66,553.14 324.66,558.807 325.5,564.5C 322.088,557.729 319.088,550.729 316.5,543.5 Z"/></g>
<g><path style="opacity:1" fill="#29bb76" d="M 365.5,549.5 C 363.728,557.208 360.728,564.374 356.5,571C 347.167,571.667 337.833,571.667 328.5,571C 327.748,570.329 327.414,569.496 327.5,568.5C 337.089,569.639 346.756,569.806 356.5,569C 358.702,565.669 360.036,562.002 360.5,558C 360.095,557.055 359.428,556.388 358.5,556C 361.167,554.138 363.5,551.972 365.5,549.5 Z"/></g>
<g><path style="opacity:1" fill="#0bcc76" d="M 617.5,553.5 C 638.399,553.408 659.399,553.575 680.5,554C 681.473,559.407 681.807,564.907 681.5,570.5C 651.5,570.5 621.5,570.5 591.5,570.5C 591.5,570.167 591.5,569.833 591.5,569.5C 619.841,569.833 648.175,569.5 676.5,568.5C 675.359,567.575 675.359,566.741 676.5,566C 677.793,565.51 679.127,565.343 680.5,565.5C 680.665,562.482 680.498,559.482 680,556.5C 678.989,555.663 677.822,555.33 676.5,555.5C 676.442,558.559 675.108,560.892 672.5,562.5C 672.758,560.242 672.758,557.909 672.5,555.5C 664.33,556.803 655.997,557.47 647.5,557.5C 639.5,557.333 631.5,557.167 623.5,557C 620.981,556.414 618.981,555.247 617.5,553.5 Z"/></g>
<g><path style="opacity:1" fill="#48b77f" d="M 557.5,552.5 C 555.819,557.212 554.153,561.878 552.5,566.5C 551.167,567.5 549.833,568.5 548.5,569.5C 551.342,564.473 553.676,559.14 555.5,553.5C 555.957,552.702 556.624,552.369 557.5,552.5 Z"/></g>
<g><path style="opacity:1" fill="#63af86" d="M 518.5,559.5 C 520.38,561.755 521.38,564.422 521.5,567.5C 519.62,565.245 518.62,562.578 518.5,559.5 Z"/></g>
<g><path style="opacity:1" fill="#0bcc75" d="M 699.5,494.5 C 698.791,495.404 697.791,495.737 696.5,495.5C 696.566,518.934 696.566,542.267 696.5,565.5C 709.441,566.686 722.441,567.353 735.5,567.5C 746.658,567.478 757.658,566.811 768.5,565.5C 769.429,566.689 769.762,568.022 769.5,569.5C 772.187,569.664 774.854,569.497 777.5,569C 776.434,567.841 776.767,567.008 778.5,566.5C 778.5,567.833 778.5,569.167 778.5,570.5C 750.833,570.5 723.167,570.5 695.5,570.5C 695.5,545.167 695.5,519.833 695.5,494.5C 696.833,494.5 698.167,494.5 699.5,494.5 Z"/></g>
<g><path style="opacity:1" fill="#3ab680" d="M 617.5,553.5 C 617.5,553.167 617.5,552.833 617.5,552.5C 638.5,552.5 659.5,552.5 680.5,552.5C 681.167,552.5 681.833,552.5 682.5,552.5C 682.5,558.833 682.5,565.167 682.5,571.5C 651.995,571.831 621.662,571.498 591.5,570.5C 621.5,570.5 651.5,570.5 681.5,570.5C 681.807,564.907 681.473,559.407 680.5,554C 659.399,553.575 638.399,553.408 617.5,553.5 Z"/></g>
<g><path style="opacity:1" fill="#2aa870" d="M 721.5,551.5 C 740.833,551.5 760.167,551.5 779.5,551.5C 779.5,558.167 779.5,564.833 779.5,571.5C 751.5,571.5 723.5,571.5 695.5,571.5C 695.5,571.167 695.5,570.833 695.5,570.5C 723.167,570.5 750.833,570.5 778.5,570.5C 778.5,569.167 778.5,567.833 778.5,566.5C 778.5,561.833 778.5,557.167 778.5,552.5C 759.326,552.83 740.326,552.497 721.5,551.5 Z"/></g>
<g><path style="opacity:1" fill="#d4f6e4" d="M 552.5,566.5 C 552.904,567.756 553.571,568.923 554.5,570C 553.705,571.582 552.538,571.749 551,570.5C 542.632,572.18 534.132,573.18 525.5,573.5C 523.962,573.547 522.962,572.88 522.5,571.5C 531.565,572.136 540.231,571.47 548.5,569.5C 549.833,568.5 551.167,567.5 552.5,566.5 Z"/></g>
<g><path style="opacity:1" fill="#40b17e" d="M 935.5,578.5 C 934.625,576.432 933.459,574.432 932,572.5C 931.092,574.439 929.592,575.439 927.5,575.5C 932.649,568.394 935.315,569.394 935.5,578.5 Z"/></g>
<g><path style="opacity:1" fill="#04d172" d="M 168.5,591.5 C 169.313,595.149 171.48,597.482 175,598.5C 175.444,603.112 177.944,605.446 182.5,605.5C 182.34,607.199 182.506,608.866 183,610.5C 183.333,609.833 183.667,609.167 184,608.5C 185.372,611.964 187.872,613.631 191.5,613.5C 191.215,615.288 191.548,616.955 192.5,618.5C 193.386,617.675 193.719,616.675 193.5,615.5C 197.533,616.695 200.533,619.195 202.5,623C 204.134,623.494 205.801,623.66 207.5,623.5C 207.833,623.5 208.167,623.5 208.5,623.5C 208.908,626.198 210.074,628.531 212,630.5C 212.498,633.482 212.665,636.482 212.5,639.5C 209.701,649.709 208.034,660.375 207.5,671.5C 206.503,685.492 205.503,699.492 204.5,713.5C 203.833,720.833 203.167,728.167 202.5,735.5C 201.168,743.974 200.502,752.807 200.5,762C 200.5,771.006 200.834,779.84 201.5,788.5C 201.783,789.289 202.283,789.956 203,790.5C 204.878,789.947 206.378,788.947 207.5,787.5C 210.196,786.115 212.863,784.782 215.5,783.5C 219.732,781.6 223.399,778.933 226.5,775.5C 229.926,773.924 233.26,772.091 236.5,770C 237.252,769.329 237.586,768.496 237.5,767.5C 240.257,764.421 243.59,762.088 247.5,760.5C 250.866,758.309 254.533,756.809 258.5,756C 262.079,751.75 266.246,748.25 271,745.5C 271.483,744.552 271.649,743.552 271.5,742.5C 274.356,741.172 277.356,740.172 280.5,739.5C 280.822,735.489 282.822,732.489 286.5,730.5C 287.386,729.675 287.719,728.675 287.5,727.5C 291.734,726.269 294.734,723.602 296.5,719.5C 298.833,719.5 301.167,719.5 303.5,719.5C 303.5,720.833 303.5,722.167 303.5,723.5C 305.821,723.229 307.821,723.896 309.5,725.5C 310.167,725.167 310.833,724.833 311.5,724.5C 312.731,725.651 312.731,726.817 311.5,728C 312.167,728.167 312.833,728.333 313.5,728.5C 315.334,727.246 317.334,726.579 319.5,726.5C 319.52,728.143 318.853,729.476 317.5,730.5C 318.5,731.5 319.5,732.5 320.5,733.5C 322.701,731.82 325.201,730.82 328,730.5C 334.089,732.564 340.255,734.398 346.5,736C 346.166,738.001 346.166,739.835 346.5,741.5C 347.167,740.833 347.833,740.167 348.5,739.5C 349.874,740.711 351.374,741.711 353,742.5C 354.767,740.836 354.267,739.669 351.5,739C 354.119,739.083 356.786,739.25 359.5,739.5C 367.017,743.225 375.017,745.558 383.5,746.5C 389.7,749.05 396.366,750.717 403.5,751.5C 404.833,751.5 406.167,751.5 407.5,751.5C 407.611,752.117 407.944,752.617 408.5,753C 413.412,754.416 418.412,755.249 423.5,755.5C 424.5,755.5 425.5,755.5 426.5,755.5C 430.514,757.63 434.848,759.13 439.5,760C 449.454,761.373 459.454,762.207 469.5,762.5C 469.918,763.222 470.584,763.722 471.5,764C 479.51,764.442 487.51,764.942 495.5,765.5C 521.324,767.45 547.324,767.783 573.5,766.5C 578.551,766.493 583.217,765.827 587.5,764.5C 594.584,765.126 601.25,764.459 607.5,762.5C 612.844,762.666 618.177,762.499 623.5,762C 625.32,761.8 626.653,760.966 627.5,759.5C 629.167,759.5 630.833,759.5 632.5,759.5C 640.531,759.468 648.198,758.135 655.5,755.5C 658.993,754.125 662.66,752.959 666.5,752C 669.146,751.503 671.813,751.336 674.5,751.5C 679.36,752.034 683.694,751.034 687.5,748.5C 690.962,748.434 694.295,747.767 697.5,746.5C 699.038,746.673 700.538,747.006 702,747.5C 706.207,746.148 710.207,744.482 714,742.5C 715.825,742.943 717.658,743.277 719.5,743.5C 719.5,742.5 719.5,741.5 719.5,740.5C 721.833,740.5 724.167,740.5 726.5,740.5C 726.5,739.5 726.5,738.5 726.5,737.5C 728.38,737.771 729.713,737.104 730.5,735.5C 734.699,733.91 739.033,732.577 743.5,731.5C 750.84,731.013 757.507,728.846 763.5,725C 767.414,723.717 771.414,722.884 775.5,722.5C 775.5,721.5 775.5,720.5 775.5,719.5C 778.435,719.283 781.269,718.617 784,717.5C 785.939,717.954 787.772,718.621 789.5,719.5C 789.833,719.5 790.167,719.5 790.5,719.5C 792.596,721.6 794.263,724.1 795.5,727C 796.793,727.49 798.127,727.657 799.5,727.5C 799.343,728.873 799.51,730.207 800,731.5C 800.414,731.043 800.914,730.709 801.5,730.5C 803.115,731.154 804.782,731.654 806.5,732C 807.337,733.011 807.67,734.178 807.5,735.5C 808.978,735.238 810.311,735.571 811.5,736.5C 810.289,737.72 810.289,738.887 811.5,740C 814.271,739.653 816.938,739.82 819.5,740.5C 834.602,749.703 849.269,759.37 863.5,769.5C 863.5,770.5 863.5,771.5 863.5,772.5C 865.167,772.5 866.833,772.5 868.5,772.5C 868.312,774.103 868.812,775.437 870,776.5C 871.049,775.483 872.216,775.316 873.5,776C 877.309,779.585 881.642,781.418 886.5,781.5C 886.833,779.167 887.167,776.833 887.5,774.5C 886.955,759.336 886.288,744.336 885.5,729.5C 885.672,728.508 885.338,727.842 884.5,727.5C 883.022,706.96 881.355,686.294 879.5,665.5C 878.935,660.851 878.435,656.184 878,651.5C 877.722,650.584 877.222,649.918 876.5,649.5C 875.14,643.683 874.14,637.683 873.5,631.5C 873.032,627.533 874.032,624.033 876.5,621C 877.448,620.517 878.448,620.351 879.5,620.5C 879.5,619.5 879.5,618.5 879.5,617.5C 884.852,615.343 889.186,612.009 892.5,607.5C 897.687,604.99 902.021,601.324 905.5,596.5C 906.911,594.086 908.911,592.419 911.5,591.5C 917.833,587.167 923.167,581.833 927.5,575.5C 929.592,575.439 931.092,574.439 932,572.5C 933.459,574.432 934.625,576.432 935.5,578.5C 940.247,592.486 943.914,606.819 946.5,621.5C 946.335,624.85 946.502,628.183 947,631.5C 947.638,634.601 948.805,637.268 950.5,639.5C 950.245,644.957 950.912,650.29 952.5,655.5C 952.322,659.218 951.489,659.218 950,655.5C 949.947,659.513 950.447,663.513 951.5,667.5C 952.167,666.167 952.833,664.833 953.5,663.5C 953.833,664.333 954.167,665.167 954.5,666C 955.029,670.85 955.696,675.683 956.5,680.5C 956.938,683.295 957.938,685.628 959.5,687.5C 959.5,689.5 959.5,691.5 959.5,693.5C 960.631,704.81 961.631,716.144 962.5,727.5C 962.522,730.59 963.188,733.257 964.5,735.5C 965.488,740.64 965.821,745.974 965.5,751.5C 966.278,772.824 966.611,794.157 966.5,815.5C 935.633,834.86 903.799,852.86 871,869.5C 832.649,843.656 796.482,814.989 762.5,783.5C 761.714,781.265 760.048,780.265 757.5,780.5C 754.77,780.389 752.77,781.389 751.5,783.5C 740.851,786.496 730.184,789.496 719.5,792.5C 716.272,792.299 713.105,792.633 710,793.5C 708.105,791.818 705.938,791.318 703.5,792C 704.308,792.308 704.975,792.808 705.5,793.5C 704.388,794.265 703.721,795.265 703.5,796.5C 691.794,799.945 679.794,802.612 667.5,804.5C 663.76,804.759 660.094,804.426 656.5,803.5C 655.614,804.325 655.281,805.325 655.5,806.5C 652.482,806.335 649.482,806.502 646.5,807C 645.944,807.383 645.611,807.883 645.5,808.5C 645.167,808.5 644.833,808.5 644.5,808.5C 629.208,809.716 613.874,811.216 598.5,813C 596.073,813.902 593.74,814.736 591.5,815.5C 590.167,815.5 588.833,815.5 587.5,815.5C 586.167,815.5 584.833,815.5 583.5,815.5C 559.506,816.167 535.506,816.5 511.5,816.5C 506.167,816.5 500.833,816.5 495.5,816.5C 492.713,815.523 489.713,815.19 486.5,815.5C 485.047,814.175 485.381,813.342 487.5,813C 485.722,812.296 483.888,811.796 482,811.5C 478.526,812.061 475.026,812.394 471.5,812.5C 463.503,811.738 455.503,811.072 447.5,810.5C 447.5,809.167 447.5,807.833 447.5,806.5C 440.784,806.047 434.118,806.047 427.5,806.5C 421.171,805.334 414.838,804.167 408.5,803C 404.193,802.134 403.86,801.134 407.5,800C 400.831,800.828 394.164,800.661 387.5,799.5C 367.288,795.489 347.454,790.156 328,783.5C 321.678,788.656 315.511,793.989 309.5,799.5C 307.5,800.167 305.5,800.833 303.5,801.5C 303.169,803.322 302.502,804.989 301.5,806.5C 296.648,811.851 291.648,817.018 286.5,822C 282.59,823.907 279.256,826.573 276.5,830C 274.975,831.009 273.308,831.509 271.5,831.5C 271.67,832.822 271.337,833.989 270.5,835C 255.199,847.649 239.532,859.816 223.5,871.5C 221.315,871.704 219.315,872.37 217.5,873.5C 180.855,857.653 146.022,838.32 113,815.5C 112.483,796.828 112.649,778.161 113.5,759.5C 114.338,759.158 114.672,758.492 114.5,757.5C 117.044,734.338 119.377,711.005 121.5,687.5C 121.5,685.5 121.5,683.5 121.5,681.5C 123.646,676.458 125.146,671.124 126,665.5C 126.699,659.511 127.199,653.511 127.5,647.5C 131.748,621.84 137.581,596.506 145,571.5C 145.718,570.549 146.551,570.383 147.5,571C 154.575,577.849 161.575,584.682 168.5,591.5 Z"/></g>
<g><path style="opacity:1" fill="#30b679" d="M 927.5,575.5 C 923.167,581.833 917.833,587.167 911.5,591.5C 916.5,585.833 921.833,580.5 927.5,575.5 Z"/></g>
<g><path style="opacity:1" fill="#42b17c" d="M 905.5,596.5 C 902.021,601.324 897.687,604.99 892.5,607.5C 896.534,603.464 900.868,599.798 905.5,596.5 Z"/></g>
<g><path style="opacity:1" fill="#24c475" d="M 168.5,591.5 C 181.506,602.173 194.506,612.84 207.5,623.5C 205.801,623.66 204.134,623.494 202.5,623C 200.533,619.195 197.533,616.695 193.5,615.5C 193.719,616.675 193.386,617.675 192.5,618.5C 191.548,616.955 191.215,615.288 191.5,613.5C 187.872,613.631 185.372,611.964 184,608.5C 183.667,609.167 183.333,609.833 183,610.5C 182.506,608.866 182.34,607.199 182.5,605.5C 177.944,605.446 175.444,603.112 175,598.5C 171.48,597.482 169.313,595.149 168.5,591.5 Z"/></g>
<g><path style="opacity:1" fill="#40b47b" d="M 892.5,607.5 C 889.186,612.009 884.852,615.343 879.5,617.5C 883.683,613.916 888.016,610.582 892.5,607.5 Z"/></g>
<g><path style="opacity:1" fill="#43a976" d="M 879.5,617.5 C 879.5,618.5 879.5,619.5 879.5,620.5C 878.448,620.351 877.448,620.517 876.5,621C 874.032,624.033 873.032,627.533 873.5,631.5C 872.067,629.086 871.567,626.419 872,623.5C 874.086,620.906 876.586,618.906 879.5,617.5 Z"/></g>
<g><path style="opacity:1" fill="#2fbe7b" d="M 946.5,621.5 C 948.451,627.245 949.785,633.245 950.5,639.5C 948.805,637.268 947.638,634.601 947,631.5C 946.502,628.183 946.335,624.85 946.5,621.5 Z"/></g>
<g><path style="opacity:1" fill="#2db075" d="M 208.5,623.5 C 209.806,624.968 211.306,626.301 213,627.5C 213.812,631.689 213.645,635.689 212.5,639.5C 212.665,636.482 212.498,633.482 212,630.5C 210.074,628.531 208.908,626.198 208.5,623.5 Z"/></g>
<g><path style="opacity:1" fill="#2bb275" d="M 876.5,649.5 C 877.222,649.918 877.722,650.584 878,651.5C 878.435,656.184 878.935,660.851 879.5,665.5C 878.778,665.082 878.278,664.416 878,663.5C 877.565,658.816 877.065,654.149 876.5,649.5 Z"/></g>
<g><path style="opacity:1" fill="#26c578" d="M 950.5,639.5 C 954.13,655.265 957.13,671.265 959.5,687.5C 957.938,685.628 956.938,683.295 956.5,680.5C 955.696,675.683 955.029,670.85 954.5,666C 954.167,665.167 953.833,664.333 953.5,663.5C 952.833,664.833 952.167,666.167 951.5,667.5C 950.447,663.513 949.947,659.513 950,655.5C 951.489,659.218 952.322,659.218 952.5,655.5C 950.912,650.29 950.245,644.957 950.5,639.5 Z"/></g>
<g><path style="opacity:1" fill="#38b679" d="M 212.5,639.5 C 211.544,650.554 209.878,661.221 207.5,671.5C 208.034,660.375 209.701,649.709 212.5,639.5 Z"/></g>
<g><path style="opacity:1" fill="#35bd7b" d="M 127.5,647.5 C 127.199,653.511 126.699,659.511 126,665.5C 125.146,671.124 123.646,676.458 121.5,681.5C 122.884,669.929 124.884,658.596 127.5,647.5 Z"/></g>
<g><path style="opacity:1" fill="#31bb7a" d="M 959.5,693.5 C 959.833,693.5 960.167,693.5 960.5,693.5C 960.608,698.71 961.275,703.71 962.5,708.5C 962.5,709.167 962.5,709.833 962.5,710.5C 962.813,715.353 963.479,720.02 964.5,724.5C 964.5,728.167 964.5,731.833 964.5,735.5C 963.188,733.257 962.522,730.59 962.5,727.5C 961.631,716.144 960.631,704.81 959.5,693.5 Z"/></g>
<g><path style="opacity:1" fill="#c5f2d7" d="M 960.5,693.5 C 962.442,698.056 963.108,703.056 962.5,708.5C 961.275,703.71 960.608,698.71 960.5,693.5 Z"/></g>
<g><path style="opacity:1" fill="#2bc07a" d="M 121.5,687.5 C 119.377,711.005 117.044,734.338 114.5,757.5C 114.977,744.823 115.644,732.156 116.5,719.5C 117.688,708.632 119.355,697.966 121.5,687.5 Z"/></g>
<g><path style="opacity:1" fill="#ccf5e0" d="M 962.5,710.5 C 963.268,711.263 963.768,712.263 964,713.5C 964.499,717.152 964.665,720.818 964.5,724.5C 963.479,720.02 962.813,715.353 962.5,710.5 Z"/></g>
<g><path style="opacity:1" fill="#36ad75" d="M 789.5,719.5 C 787.772,718.621 785.939,717.954 784,717.5C 781.269,718.617 778.435,719.283 775.5,719.5C 778.404,717.805 781.571,716.472 785,715.5C 786.98,716.315 788.48,717.648 789.5,719.5 Z"/></g>
<g><path style="opacity:1" fill="#f5e8ec" d="M 968.5,692.5 C 969.496,692.414 970.329,692.748 971,693.5C 971.256,697.947 972.089,702.28 973.5,706.5C 970.44,719.64 968.607,732.974 968,746.5C 966.87,743.184 966.37,739.684 966.5,736C 966.289,729.146 967.289,722.479 969.5,716C 968.618,708.193 968.285,700.36 968.5,692.5 Z"/></g>
<g><path style="opacity:1" fill="#42b07b" d="M 296.5,719.5 C 294.734,723.602 291.734,726.269 287.5,727.5C 290.474,724.862 293.474,722.195 296.5,719.5 Z"/></g>
<g><path style="opacity:1" fill="#31be7b" d="M 775.5,719.5 C 775.5,720.5 775.5,721.5 775.5,722.5C 771.414,722.884 767.414,723.717 763.5,725C 757.507,728.846 750.84,731.013 743.5,731.5C 753.881,726.986 764.548,722.986 775.5,719.5 Z"/></g>
<g><path style="opacity:1" fill="#26c477" d="M 790.5,719.5 C 800.476,726.153 810.143,733.153 819.5,740.5C 816.938,739.82 814.271,739.653 811.5,740C 810.289,738.887 810.289,737.72 811.5,736.5C 810.311,735.571 808.978,735.238 807.5,735.5C 807.67,734.178 807.337,733.011 806.5,732C 804.782,731.654 803.115,731.154 801.5,730.5C 800.914,730.709 800.414,731.043 800,731.5C 799.51,730.207 799.343,728.873 799.5,727.5C 798.127,727.657 796.793,727.49 795.5,727C 794.263,724.1 792.596,721.6 790.5,719.5 Z"/></g>
<g><path style="opacity:1" fill="#1fc674" d="M 303.5,719.5 C 322.034,726.778 340.7,733.444 359.5,739.5C 356.786,739.25 354.119,739.083 351.5,739C 354.267,739.669 354.767,740.836 353,742.5C 351.374,741.711 349.874,740.711 348.5,739.5C 347.833,740.167 347.167,740.833 346.5,741.5C 346.166,739.835 346.166,738.001 346.5,736C 340.255,734.398 334.089,732.564 328,730.5C 325.201,730.82 322.701,731.82 320.5,733.5C 319.5,732.5 318.5,731.5 317.5,730.5C 318.853,729.476 319.52,728.143 319.5,726.5C 317.334,726.579 315.334,727.246 313.5,728.5C 312.833,728.333 312.167,728.167 311.5,728C 312.731,726.817 312.731,725.651 311.5,724.5C 310.833,724.833 310.167,725.167 309.5,725.5C 307.821,723.896 305.821,723.229 303.5,723.5C 303.5,722.167 303.5,720.833 303.5,719.5 Z"/></g>
<g><path style="opacity:1" fill="#c7f3db" d="M 204.5,713.5 C 205.147,726.544 204.48,739.211 202.5,751.5C 202.5,746.167 202.5,740.833 202.5,735.5C 203.167,728.167 203.833,720.833 204.5,713.5 Z"/></g>
<g><path style="opacity:1" fill="#27b973" d="M 359.5,739.5 C 367.826,741.057 375.826,743.39 383.5,746.5C 375.017,745.558 367.017,743.225 359.5,739.5 Z"/></g>
<g><path style="opacity:1" fill="#28c57a" d="M 730.5,735.5 C 729.713,737.104 728.38,737.771 726.5,737.5C 726.5,738.5 726.5,739.5 726.5,740.5C 724.167,740.5 721.833,740.5 719.5,740.5C 719.5,741.5 719.5,742.5 719.5,743.5C 717.658,743.277 715.825,742.943 714,742.5C 710.207,744.482 706.207,746.148 702,747.5C 700.538,747.006 699.038,746.673 697.5,746.5C 694.295,747.767 690.962,748.434 687.5,748.5C 701.605,743.801 715.938,739.468 730.5,735.5 Z"/></g>
<g><path style="opacity:1" fill="#1fc377" d="M 202.5,735.5 C 202.5,740.833 202.5,746.167 202.5,751.5C 201.505,763.655 201.171,775.989 201.5,788.5C 200.834,779.84 200.5,771.006 200.5,762C 200.502,752.807 201.168,743.974 202.5,735.5 Z"/></g>
<g><path style="opacity:1" fill="#2bbf76" d="M 287.5,727.5 C 287.719,728.675 287.386,729.675 286.5,730.5C 282.822,732.489 280.822,735.489 280.5,739.5C 277.356,740.172 274.356,741.172 271.5,742.5C 271.649,743.552 271.483,744.552 271,745.5C 266.246,748.25 262.079,751.75 258.5,756C 254.533,756.809 250.866,758.309 247.5,760.5C 260.761,749.587 274.095,738.587 287.5,727.5 Z"/></g>
<g><path style="opacity:1" fill="#34ad75" d="M 383.5,746.5 C 390.475,747.389 397.141,749.056 403.5,751.5C 396.366,750.717 389.7,749.05 383.5,746.5 Z"/></g>
<g><path style="opacity:1" fill="#baefd5" d="M 116.5,719.5 C 115.644,732.156 114.977,744.823 114.5,757.5C 114.672,758.492 114.338,759.158 113.5,759.5C 113.618,749.994 113.951,740.494 114.5,731C 114.51,726.771 115.177,722.938 116.5,719.5 Z"/></g>
<g><path style="opacity:1" fill="#36b379" d="M 687.5,748.5 C 683.694,751.034 679.36,752.034 674.5,751.5C 678.515,749.627 682.849,748.627 687.5,748.5 Z"/></g>
<g><path style="opacity:1" fill="#42b07a" d="M 407.5,751.5 C 412.756,752.87 418.089,753.87 423.5,754.5C 423.5,754.833 423.5,755.167 423.5,755.5C 418.412,755.249 413.412,754.416 408.5,753C 407.944,752.617 407.611,752.117 407.5,751.5 Z"/></g>
<g><path style="opacity:1" fill="#e7eee9" d="M 495.5,764.5 C 486.819,763.907 478.152,763.24 469.5,762.5C 455.24,760.587 440.906,758.254 426.5,755.5C 425.5,755.5 424.5,755.5 423.5,755.5C 423.5,755.167 423.5,754.833 423.5,754.5C 427.472,754.532 431.306,753.866 435,752.5C 442.9,754.372 450.9,755.706 459,756.5C 466.226,755.785 473.392,754.785 480.5,753.5C 484.277,754.397 488.111,755.064 492,755.5C 499.412,753.886 506.912,752.886 514.5,752.5C 534.762,755.012 555.095,756.845 575.5,758C 567.5,758.5 559.5,759 551.5,759.5C 530.13,759.165 508.797,758.165 487.5,756.5C 477.872,757.709 468.205,758.542 458.5,759C 458.833,759.333 459.167,759.667 459.5,760C 466.523,760.085 473.356,760.918 480,762.5C 481.5,762.333 483,762.167 484.5,762C 481.7,760.768 478.7,760.101 475.5,760C 482.121,758.222 488.787,758.056 495.5,759.5C 495.5,760.5 495.5,761.5 495.5,762.5C 494.127,762.343 492.793,762.51 491.5,763C 493.058,763.21 494.391,763.71 495.5,764.5 Z"/></g>
<g><path style="opacity:1" fill="#31b576" d="M 655.5,755.5 C 648.198,758.135 640.531,759.468 632.5,759.5C 639.909,757.431 647.575,756.098 655.5,755.5 Z"/></g>
<g><path style="opacity:1" fill="#30b172" d="M 426.5,755.5 C 440.906,758.254 455.24,760.587 469.5,762.5C 459.454,762.207 449.454,761.373 439.5,760C 434.848,759.13 430.514,757.63 426.5,755.5 Z"/></g>
<g><path style="opacity:1" fill="#3eb37c" d="M 627.5,759.5 C 626.653,760.966 625.32,761.8 623.5,762C 618.177,762.499 612.844,762.666 607.5,762.5C 611.5,761.833 615.5,761.167 619.5,760.5C 622.167,760.167 624.833,759.833 627.5,759.5 Z"/></g>
<g><path style="opacity:1" fill="#caf3dc" d="M 884.5,727.5 C 885.338,727.842 885.672,728.508 885.5,729.5C 885.5,746.5 885.5,763.5 885.5,780.5C 883.03,780.346 881.03,779.346 879.5,777.5C 880.93,777.421 882.264,777.754 883.5,778.5C 884.499,761.513 884.833,744.513 884.5,727.5 Z"/></g>
<g><path style="opacity:1" fill="#2dad71" d="M 469.5,762.5 C 478.152,763.24 486.819,763.907 495.5,764.5C 495.5,764.833 495.5,765.167 495.5,765.5C 487.51,764.942 479.51,764.442 471.5,764C 470.584,763.722 469.918,763.222 469.5,762.5 Z"/></g>
<g><path style="opacity:1" fill="#36ae77" d="M 607.5,762.5 C 601.25,764.459 594.584,765.126 587.5,764.5C 594.009,763.671 600.676,763.005 607.5,762.5 Z"/></g>
<g><path style="opacity:1" fill="#d7f2e0" d="M 619.5,760.5 C 615.5,761.167 611.5,761.833 607.5,762.5C 600.676,763.005 594.009,763.671 587.5,764.5C 556.858,765.469 526.192,765.803 495.5,765.5C 495.5,765.167 495.5,764.833 495.5,764.5C 530.871,765.003 566.204,764.17 601.5,762C 605.5,761.333 605.5,760.667 601.5,760C 602.729,759.219 604.062,758.719 605.5,758.5C 609.993,760.248 614.66,760.915 619.5,760.5 Z"/></g>
<g><path style="opacity:1" fill="#31b476" d="M 587.5,764.5 C 583.217,765.827 578.551,766.493 573.5,766.5C 547.324,767.783 521.324,767.45 495.5,765.5C 526.192,765.803 556.858,765.469 587.5,764.5 Z"/></g>
<g><path style="opacity:1" fill="#cef6e1" d="M 966.5,751.5 C 967.29,752.609 967.79,753.942 968,755.5C 968.5,764.827 968.666,774.161 968.5,783.5C 967.535,773.005 966.869,762.338 966.5,751.5 Z"/></g>
<g><path style="opacity:1" fill="#9eddbc" d="M 202.5,751.5 C 202.168,763.851 202.501,776.185 203.5,788.5C 204.298,786.922 204.798,785.256 205,783.5C 205.122,785.437 205.955,786.77 207.5,787.5C 206.378,788.947 204.878,789.947 203,790.5C 202.283,789.956 201.783,789.289 201.5,788.5C 201.171,775.989 201.505,763.655 202.5,751.5 Z"/></g>
<g><path style="opacity:1" fill="#43b27b" d="M 237.5,767.5 C 237.586,768.496 237.252,769.329 236.5,770C 233.26,772.091 229.926,773.924 226.5,775.5C 229.597,772.112 233.264,769.445 237.5,767.5 Z"/></g>
<g><path style="opacity:1" fill="#36bd7c" d="M 965.5,751.5 C 965.833,751.5 966.167,751.5 966.5,751.5C 966.869,762.338 967.535,773.005 968.5,783.5C 968.666,793.506 968.5,803.506 968,813.5C 967.722,814.416 967.222,815.082 966.5,815.5C 966.611,794.157 966.278,772.824 965.5,751.5 Z"/></g>
<g><path style="opacity:1" fill="#3eb278" d="M 226.5,775.5 C 223.399,778.933 219.732,781.6 215.5,783.5C 218.627,780.102 222.293,777.435 226.5,775.5 Z"/></g>
<g><path style="opacity:1" fill="#45b982" d="M 762.5,783.5 C 762.167,783.5 761.833,783.5 761.5,783.5C 761.167,783.5 760.833,783.5 760.5,783.5C 760.038,782.12 759.038,781.453 757.5,781.5C 755.403,781.977 753.403,782.643 751.5,783.5C 752.77,781.389 754.77,780.389 757.5,780.5C 760.048,780.265 761.714,781.265 762.5,783.5 Z"/></g>
<g><path style="opacity:1" fill="#3abc7d" d="M 885.5,729.5 C 886.288,744.336 886.955,759.336 887.5,774.5C 887.167,776.833 886.833,779.167 886.5,781.5C 881.642,781.418 877.309,779.585 873.5,776C 872.216,775.316 871.049,775.483 870,776.5C 868.812,775.437 868.312,774.103 868.5,772.5C 866.833,772.5 865.167,772.5 863.5,772.5C 863.5,771.5 863.5,770.5 863.5,769.5C 868.791,772.146 874.125,774.812 879.5,777.5C 881.03,779.346 883.03,780.346 885.5,780.5C 885.5,763.5 885.5,746.5 885.5,729.5 Z"/></g>
<g><path style="opacity:1" fill="#f4e8ef" d="M 760.5,783.5 C 760.833,783.5 761.167,783.5 761.5,783.5C 761.427,787.72 763.427,790.054 767.5,790.5C 767.785,792.288 767.452,793.955 766.5,795.5C 764.269,794.097 761.936,792.93 759.5,792C 758.039,789.579 756.706,787.079 755.5,784.5C 757.045,783.548 758.712,783.215 760.5,783.5 Z"/></g>
<g><path style="opacity:1" fill="#2ec27b" d="M 719.5,792.5 C 714.427,794.435 709.094,795.768 703.5,796.5C 703.721,795.265 704.388,794.265 705.5,793.5C 704.975,792.808 704.308,792.308 703.5,792C 705.938,791.318 708.105,791.818 710,793.5C 713.105,792.633 716.272,792.299 719.5,792.5 Z"/></g>
<g><path style="opacity:1" fill="#3dbb7d" d="M 309.5,799.5 C 307.431,802.573 304.764,804.906 301.5,806.5C 302.502,804.989 303.169,803.322 303.5,801.5C 305.5,800.833 307.5,800.167 309.5,799.5 Z"/></g>
<g><path style="opacity:1" fill="#2ac07b" d="M 667.5,804.5 C 660.446,806.678 653.113,808.011 645.5,808.5C 645.611,807.883 645.944,807.383 646.5,807C 649.482,806.502 652.482,806.335 655.5,806.5C 655.281,805.325 655.614,804.325 656.5,803.5C 660.094,804.426 663.76,804.759 667.5,804.5 Z"/></g>
<g><path style="opacity:1" fill="#24cb79" d="M 387.5,799.5 C 394.164,800.661 400.831,800.828 407.5,800C 403.86,801.134 404.193,802.134 408.5,803C 414.838,804.167 421.171,805.334 427.5,806.5C 434.118,806.047 440.784,806.047 447.5,806.5C 447.5,807.833 447.5,809.167 447.5,810.5C 427.06,808.54 407.06,804.873 387.5,799.5 Z"/></g>
<g><path style="opacity:1" fill="#27c378" d="M 447.5,810.5 C 455.503,811.072 463.503,811.738 471.5,812.5C 475.026,812.394 478.526,812.061 482,811.5C 483.888,811.796 485.722,812.296 487.5,813C 485.381,813.342 485.047,814.175 486.5,815.5C 473.271,814.548 460.271,812.881 447.5,810.5 Z"/></g>
<g><path style="opacity:1" fill="#2abf78" d="M 644.5,808.5 C 627.103,811.811 609.437,814.144 591.5,815.5C 593.74,814.736 596.073,813.902 598.5,813C 613.874,811.216 629.208,809.716 644.5,808.5 Z"/></g>
<g><path style="opacity:1" fill="#36b376" d="M 583.5,815.5 C 569.028,816.977 554.362,817.644 539.5,817.5C 529.994,817.5 520.661,817.166 511.5,816.5C 535.506,816.5 559.506,816.167 583.5,815.5 Z"/></g>
<g><path style="opacity:1" fill="#d5f7e2" d="M 583.5,815.5 C 584.833,815.5 586.167,815.5 587.5,815.5C 586.192,816.232 584.858,817.066 583.5,818C 555.833,818.667 528.167,818.667 500.5,818C 498.618,817.802 496.952,817.302 495.5,816.5C 500.833,816.5 506.167,816.5 511.5,816.5C 520.661,817.166 529.994,817.5 539.5,817.5C 554.362,817.644 569.028,816.977 583.5,815.5 Z"/></g>
<g><path style="opacity:1" fill="#45ac77" d="M 223.5,871.5 C 221.909,873.986 219.909,874.652 217.5,873.5C 219.315,872.37 221.315,871.704 223.5,871.5 Z"/></g>
</svg>
